<svg width="3016" height="2260" xmlns="http://www.w3.org/2000/svg" xmlns:xlink="http://www.w3.org/1999/xlink" overflow="hidden"><defs><clipPath id="clip0"><rect x="692" y="107" width="3016" height="2260"/></clipPath></defs><g clip-path="url(#clip0)" transform="translate(-692 -107)"><path d="M720.103 107.956C705.111 107.977 692.959 120.128 692.942 135.126L692.942 2339.79C692.959 2354.78 705.111 2366.94 720.103 2366.96L3680.78 2366.96C3695.77 2366.94 3707.91 2354.78 3707.94 2339.79L3707.94 135.126C3707.91 120.128 3695.77 107.977 3680.78 107.956Z" fill="#E6E6E6" fill-rule="evenodd"/><path d="M779.942 194.956 779.942 2279.96 3620.94 2279.96 3620.94 194.956Z" fill="#FFFFFF" fill-rule="evenodd"/><path d="M2862.88 307.956C2859.6 307.963 2856.95 310.619 2856.94 313.9L2856.94 796.016C2856.95 799.294 2859.6 801.953 2862.88 801.956L3510.01 801.956C3513.28 801.953 3515.94 799.294 3515.94 796.016L3515.94 313.9C3515.94 310.619 3513.28 307.963 3510.01 307.956Z" fill="#E6E6E6" fill-rule="evenodd"/><path d="M2875.94 326.956 2875.94 782.956 3496.94 782.956 3496.94 326.956Z" fill="#FFFFFF" fill-rule="evenodd"/><path d="M2862.88 986.956C2859.6 986.96 2856.95 989.61 2856.94 992.885L2856.94 1474.03C2856.95 1477.3 2859.6 1479.95 2862.88 1479.96L3510.01 1479.96C3513.28 1479.95 3515.94 1477.3 3515.94 1474.03L3515.94 992.885C3515.94 989.61 3513.28 986.96 3510.01 986.956Z" fill="#E6E6E6" fill-rule="evenodd"/><path d="M2875.94 1005.96 2875.94 1460.96 3496.94 1460.96 3496.94 1005.96Z" fill="#FFFFFF" fill-rule="evenodd"/><path d="M2862.88 1664.96C2859.6 1664.96 2856.95 1667.62 2856.94 1670.9L2856.94 2153.01C2856.95 2156.29 2859.6 2158.95 2862.88 2158.96L3510.01 2158.96C3513.28 2158.95 3515.94 2156.29 3515.94 2153.01L3515.94 1670.9C3515.94 1667.62 3513.28 1664.96 3510.01 1664.96Z" fill="#E6E6E6" fill-rule="evenodd"/><path d="M2875.94 1683.96 2875.94 2139.96 3496.94 2139.96 3496.94 1683.96Z" fill="#FFFFFF" fill-rule="evenodd"/><path d="M3380.36 695.074 3256.45 608.465 3256.41 608.465 3256.4 608.479C3252.19 595.23 3249.28 581.599 3247.73 567.783 3259.36 557.196 3267.62 543.424 3271.47 528.181 3271.97 528.476 3272.45 528.8 3272.91 529.154 3283.76 537.828 3304.39 445.643 3269.65 428.288 3269.65 428.288 3243.6 371.891 3193.67 384.906 3143.74 397.921 3115.52 417.443 3113.35 436.966 3111.18 456.488 3114.44 485.772 3114.44 485.772 3114.44 485.772 3117.44 463.629 3133.23 455.8 3104.06 489.043 3107.38 539.624 3140.64 568.777 3144.58 572.227 3148.85 575.281 3153.38 577.898 3149.61 590.827 3144.58 607.584 3140.35 619.891L3140.34 619.891 3102.48 638.705 3020 690.761C3020 690.761 2987.45 731.949 2976.58 779.688 2975.74 783.444 2974.86 787.201 2973.94 790.956L3413.94 790.956C3399.27 746.652 3380.36 695.074 3380.36 695.074Z" fill="#E6E6E6" fill-rule="evenodd"/><path d="M3353.15 2088.42C3361.62 2083.01 3370.59 2078.43 3379.94 2074.75L3287.71 1965.36 3226.76 1949.77C3216.06 1943.77 3207.61 1934.44 3202.72 1923.2L3235.35 1922.88 3247.79 1852.52C3255.35 1832.06 3252.27 1814.13 3235.35 1799.34 3238.4 1780.4 3229.8 1766.46 3207 1758.59 3184.32 1738.93 3150.8 1734.22 3130.68 1765.7 3113.81 1764.7 3099.14 1777.15 3097.41 1793.95 3078.93 1815.41 3099.45 1894.16 3105.53 1924.16L3137.96 1923.84C3136.09 1934.94 3130.64 1945.13 3122.45 1952.85L3122.01 1952.41 3057.17 1984.09 2964.94 2090.61C2974.04 2094.17 2982.79 2098.59 2991.06 2103.8L2981.54 2139.96 3047.53 2139.96 3065.09 2114.47 3065.97 2114.47C3065.97 2114.03 3066.01 2113.59 3066.01 2113.15L3078.33 2095.25C3078.61 2109.71 3078.21 2124.61 3077.21 2139.96L3282.47 2139.96C3282.15 2127.21 3282.07 2114.55 3282.07 2101.96L3305.03 2135.24C3306.75 2132.73 3308.59 2130.37 3310.43 2127.97L3314.95 2139.96 3367.5 2139.96 3354.9 2092.09C3354.55 2090.77 3353.95 2089.52 3353.15 2088.42Z" fill="#E6E6E6" fill-rule="evenodd"/><path d="M3307.3 1326.58 3220.14 1290.99C3218.06 1282.76 3216.3 1275.01 3215.18 1268.18 3233.26 1257.91 3246.42 1240.78 3251.66 1220.68L3260.86 1210.81C3270.75 1200.51 3275.7 1186.44 3274.46 1172.22 3272.86 1158.71 3266.01 1146.38 3255.38 1137.87 3258.94 1115.38 3248.74 1098.84 3221.7 1089.49 3194.82 1066.21 3155.02 1060.57 3131.18 1097.92 3111.15 1096.73 3093.73 1111.5 3091.66 1131.44 3072.06 1154.21 3092.26 1199.63 3101.9 1234.42 3103.41 1239.69 3107.93 1243.53 3113.38 1244.17 3119.79 1253.63 3128.22 1261.56 3138.06 1267.38 3138.31 1277.43 3137.13 1287.46 3134.54 1297.18L3134.62 1294.14 3069.62 1323.35 3069.58 1322.54 3063.3 1326.18 3053.34 1330.65C3053.42 1331.05 3053.5 1331.41 3053.58 1331.81L3052.66 1332.33C3038.66 1340.43 3027.94 1353.16 3022.34 1368.32L2988.94 1465.96 3287.98 1465.96C3291.02 1455.78 3294.77 1445.82 3299.18 1436.16L3299.26 1435.08 3325.82 1465.96 3406.94 1465.96Z" fill="#E6E6E6" fill-rule="evenodd"/><path d="M2005 1961C2005 2057.65 1926.65 2136 1830 2136 1733.35 2136 1655 2057.65 1655 1961 1655 1864.35 1733.35 1786 1830 1786 1926.65 1786 2005 1864.35 2005 1961Z" fill="#E6E6E6" fill-rule="evenodd"/><path d="M1964 1961C1964 2035.01 1904.01 2095 1830 2095 1755.99 2095 1696 2035.01 1696 1961 1696 1886.99 1755.99 1827 1830 1827 1904.01 1827 1964 1886.99 1964 1961Z" fill="#FFFFFF" fill-rule="evenodd"/><path d="M1896.86 2033.96C1895.24 2033.96 1893.69 2033.32 1892.55 2032.17L1758.62 1898.24C1756.3 1895.8 1756.4 1891.94 1758.84 1889.63 1761.19 1887.4 1764.88 1887.4 1767.22 1889.63L1901.16 2023.56C1903.54 2025.94 1903.53 2029.8 1901.16 2032.17 1900.02 2033.32 1898.47 2033.96 1896.86 2033.96Z" fill="#4472C4" fill-rule="evenodd"/><path d="M1826.72 1983.67 1807.22 1964.18C1806.93 1963.88 1806.45 1963.88 1806.16 1964.18 1806 1964.35 1805.92 1964.58 1805.95 1964.81 1807.56 1975.19 1815.71 1983.34 1826.09 1984.95 1826.5 1985 1826.88 1984.72 1826.94 1984.31 1826.97 1984.07 1826.89 1983.84 1826.72 1983.67Z" fill="#2F855A" fill-rule="evenodd"/><path d="M1833.16 1938.24 1852.66 1957.73C1852.95 1958.03 1853.43 1958.03 1853.72 1957.74 1853.89 1957.57 1853.97 1957.33 1853.94 1957.1 1852.33 1946.72 1844.18 1938.57 1833.81 1936.97 1833.4 1936.9 1833.01 1937.19 1832.95 1937.6 1832.91 1937.83 1832.99 1938.07 1833.16 1938.24Z" fill="#2F855A" fill-rule="evenodd"/><path d="M1920.02 1967.24C1922.6 1963.21 1922.58 1958.06 1919.98 1954.05 1910.2 1938.84 1897.31 1925.84 1882.16 1915.92 1866.79 1905.74 1848.8 1900.2 1830.35 1899.96 1821.05 1899.97 1811.81 1901.48 1802.99 1904.43 1802.19 1904.69 1801.75 1905.55 1802.02 1906.35 1802.1 1906.57 1802.22 1906.78 1802.39 1906.94L1820.39 1924.86C1820.77 1925.24 1821.33 1925.4 1821.85 1925.26 1841.48 1920.5 1861.27 1932.48 1866.05 1952.03 1867.44 1957.69 1867.44 1963.6 1866.05 1969.27 1865.92 1969.79 1866.07 1970.34 1866.45 1970.71L1892.34 1996.51C1892.9 1997.07 1893.79 1997.11 1894.4 1996.6 1904.37 1988.14 1913 1978.25 1920.02 1967.24Z" fill="#4472C4" fill-rule="evenodd"/><path d="M1830.34 1997.56C1810.15 1997.56 1793.78 1981.18 1793.78 1960.97 1793.78 1958.07 1794.12 1955.17 1794.81 1952.35 1794.94 1951.82 1794.79 1951.27 1794.41 1950.89L1768.95 1925.41C1768.39 1924.84 1767.5 1924.8 1766.89 1925.32 1757.11 1933.8 1748.45 1943.5 1741.12 1954.18 1738.31 1958.23 1738.21 1963.58 1740.88 1967.72 1750.49 1983.03 1763.25 1996.11 1778.31 2006.09 1793.68 2016.35 1811.73 2021.87 1830.22 2021.96 1839.61 2021.93 1848.94 2020.44 1857.88 2017.55 1858.68 2017.3 1859.13 2016.44 1858.87 2015.64 1858.79 2015.41 1858.67 2015.19 1858.49 2015.02L1840.42 1996.93C1840.04 1996.55 1839.49 1996.4 1838.97 1996.53 1836.14 1997.22 1833.25 1997.56 1830.34 1997.56Z" fill="#4472C4" fill-rule="evenodd"/><path d="M1342 1961C1342 2057.65 1263.65 2136 1167 2136 1070.35 2136 992 2057.65 992 1961 992 1864.35 1070.35 1786 1167 1786 1263.65 1786 1342 1864.35 1342 1961Z" fill="#E6E6E6" fill-rule="evenodd"/><path d="M1301 1961C1301 2035.01 1241.01 2095 1167 2095 1092.99 2095 1033 2035.01 1033 1961 1033 1886.99 1092.99 1827 1167 1827 1241.01 1827 1301 1886.99 1301 1961Z" fill="#FFFFFF" fill-rule="evenodd"/><path d="M1218.19 2045.96C1210.78 2045.96 1200.38 2043.28 1184.79 2034.57 1165.41 2024.22 1147.72 2010.99 1132.32 1995.33 1116.37 1980.15 1103.06 1962.42 1092.91 1942.89 1078.93 1917.45 1081.31 1904.13 1083.98 1898.43 1087.05 1892.2 1091.89 1887.01 1097.89 1883.5 1101.33 1881.25 1104.97 1879.32 1108.76 1877.73 1109.14 1877.57 1109.5 1877.41 1109.81 1877.27 1112.35 1875.84 1115.39 1875.56 1118.14 1876.52 1121.18 1877.97 1123.87 1880.04 1126.07 1882.59 1133.96 1891.45 1140.62 1901.33 1145.87 1911.98 1148.02 1915.66 1149.35 1919.77 1149.75 1924.02 1149.43 1928.22 1147.73 1932.2 1144.91 1935.33 1144.41 1936.01 1143.92 1936.66 1143.44 1937.29 1140.55 1941.08 1139.92 1942.18 1140.33 1944.14 1141.18 1948.08 1147.49 1959.79 1157.87 1970.14 1168.24 1980.49 1179.63 1986.41 1183.58 1987.25 1185.62 1987.69 1186.74 1987.02 1190.66 1984.03 1191.22 1983.61 1191.8 1983.16 1192.4 1982.72 1195.54 1979.76 1199.59 1977.95 1203.89 1977.58L1203.91 1977.58C1208.22 1978.02 1212.37 1979.47 1216.01 1981.82 1222.84 1985.27 1238.45 1994.57 1245.29 2001.48 1247.85 2003.66 1249.92 2006.35 1251.39 2009.37 1252.34 2012.14 1252.06 2015.18 1250.63 2017.72 1250.49 2018.04 1250.33 2018.39 1250.17 2018.77 1248.57 2022.56 1246.63 2026.19 1244.36 2029.62 1240.84 2035.61 1235.65 2040.43 1229.41 2043.5 1225.91 2045.16 1222.07 2046 1218.19 2045.96Z" fill="#4472C4" fill-rule="evenodd"/><path d="M2673 1961C2673 2057.65 2594.87 2136 2498.5 2136 2402.13 2136 2324 2057.65 2324 1961 2324 1864.35 2402.13 1786 2498.5 1786 2594.87 1786 2673 1864.35 2673 1961Z" fill="#E6E6E6" fill-rule="evenodd"/><path d="M2632 1961C2632 2035.01 2572.01 2095 2498 2095 2423.99 2095 2364 2035.01 2364 1961 2364 1886.99 2423.99 1827 2498 1827 2572.01 1827 2632 1886.99 2632 1961Z" fill="#FFFFFF" fill-rule="evenodd"/><path d="M2522.84 2039.96 2474.04 2039.96C2470.67 2039.96 2467.94 2037.27 2467.94 2033.96 2467.94 2030.64 2470.67 2027.96 2474.04 2027.96L2522.84 2027.96C2526.21 2027.96 2528.94 2030.64 2528.94 2033.96 2528.94 2037.27 2526.21 2039.96 2522.84 2039.96Z" fill="#4472C4" fill-rule="evenodd"/><path d="M2498.44 2009.96C2468.36 2009.92 2443.98 1985.09 2443.94 1954.46L2443.94 1942.12C2443.94 1938.72 2446.65 1935.96 2450 1935.96 2453.34 1935.96 2456.05 1938.72 2456.05 1942.12L2456.05 1954.46C2456.07 1978.3 2475.07 1997.6 2498.48 1997.58 2521.86 1997.56 2540.81 1978.27 2540.83 1954.46L2540.83 1942.12C2540.83 1938.72 2543.54 1935.96 2546.89 1935.96 2550.23 1935.96 2552.94 1938.72 2552.94 1942.12L2552.94 1954.46C2552.91 1985.09 2528.53 2009.92 2498.44 2009.96Z" fill="#4472C4" fill-rule="evenodd"/><path d="M2498.44 2039.96C2494.84 2039.96 2491.94 2037.27 2491.94 2033.96 2491.94 2033.96 2491.94 2033.96 2491.94 2033.96L2491.94 2003.96C2491.94 2000.64 2494.84 1997.96 2498.44 1997.96 2502.03 1997.96 2504.94 2000.64 2504.94 2003.96L2504.94 2033.96C2504.94 2037.27 2502.03 2039.95 2498.44 2039.96 2498.44 2039.96 2498.44 2039.96 2498.44 2039.96Z" fill="#4472C4" fill-rule="evenodd"/><path d="M2498.44 1984.96C2490.31 1984.94 2482.53 1981.65 2476.88 1975.83 2471.16 1970.1 2467.95 1962.36 2467.94 1954.29L2467.94 1912.25C2467.88 1895.59 2481.42 1882.02 2498.2 1881.96 2498.28 1881.96 2498.36 1881.96 2498.44 1881.96 2515.1 1881.78 2528.76 1895.05 2528.94 1911.6 2528.94 1911.82 2528.94 1912.04 2528.94 1912.25L2528.94 1954.29C2529.03 1971.11 2515.38 1984.83 2498.44 1984.96Z" fill="#4472C4" fill-rule="evenodd"/><path d="M937.896 308.956C929.089 308.966 921.952 316.1 921.942 324.903L921.942 1619.01C921.952 1627.81 929.089 1634.95 937.896 1634.96L2676.99 1634.96C2685.79 1634.95 2692.93 1627.81 2692.94 1619.01L2692.94 324.903C2692.93 316.1 2685.79 308.966 2676.99 308.956Z" fill="#E6E6E6" fill-rule="evenodd"/><path d="M972.942 359.956 972.942 1583.96 2641.94 1583.96 2641.94 359.956Z" fill="#FFFFFF" fill-rule="evenodd"/><path d="M2125.49 1584 2128.49 1572.28 2102.45 1464.64 2099.91 1454.07 2098 1446.18 2101.05 1445.15 2254.88 1394 2256.85 1422.41 2268 1584 2125.49 1584Z" fill="#FFB9B9" fill-rule="evenodd"/><path d="M1512.54 1464.64 1486.51 1572.28 1489.51 1584 1347 1584 1358.15 1422.41 1360.12 1394 1517 1446.18 1512.54 1464.64Z" fill="#FFB9B9" fill-rule="evenodd"/><path d="M1935.94 1030.77 1687.94 1056.96C1713.99 989.672 1709.17 912.454 1687.94 829.957L1866.33 829.957C1878.05 900.358 1901.59 968.259 1935.94 1030.77Z" fill="#FFB9B9" fill-rule="evenodd"/><path d="M1915 800C1915 874.558 1854.33 935 1779.5 935 1704.67 935 1644 874.558 1644 800 1644 725.442 1704.67 665 1779.5 665 1854.33 665 1915 725.442 1915 800Z" fill="#FFB9B9" fill-rule="evenodd"/><path d="M2167.94 1083.88C2139.37 1209.99 2115.85 1329.88 2101.13 1444.74 2100.73 1447.74 2100.35 1450.72 2100 1453.69 2099.51 1457.58 2099.02 1461.47 2098.59 1465.36 2093.77 1505.49 2090.14 1545.02 2087.68 1583.96L1542.93 1583.96C1543.5 1547.24 1542.28 1509.68 1539.55 1471.6 1530.15 1341.01 1502.58 1204.45 1464.94 1075.15L1465.21 1075.04 1703.36 992.899 1705.09 992.302C1773.75 1023.94 1842.09 1025.4 1909.91 977.389 1910.12 977.252 1910.31 977.09 1910.53 976.956L2132.52 1069.18 2132.6 1069.21Z" fill="#4472C4" fill-rule="evenodd"/><path d="M2328.94 1402.63 2058.94 1476.96 2124.27 1065.96 2165.93 1079.9C2196.98 1090.29 2220.67 1115.76 2228.88 1147.57Z" fill="#4472C4" fill-rule="evenodd"/><path d="M1285.94 1402.63 1556.94 1476.96 1491.38 1065.96 1449.55 1079.9C1418.4 1090.29 1394.61 1115.76 1386.37 1147.57Z" fill="#4472C4" fill-rule="evenodd"/><path d="M1770.62 571.117 1770.62 571.117C1747.64 572.175 1725.26 578.77 1705.37 590.34 1700.8 593.004 1702.91 602.607 1698.68 605.737 1693.36 609.682 1681.8 607.289 1677.09 611.907 1646.28 642.005 1630.64 684.384 1634.52 727.295L1642.03 801.956 1659.73 782.583C1691.48 747.366 1735.55 725.72 1782.81 722.129 1784.82 721.991 1786.83 721.885 1788.85 721.806L1775.22 697.956 1798.9 721.641C1809.7 721.761 1820.47 722.637 1831.15 724.267L1813.04 692.552 1847.79 727.326 1847.79 727.33C1876.62 733.671 1900.72 753.34 1912.72 780.317L1916.58 788.876 1920.91 717.648C1922.63 638.373 1859.8 572.714 1780.57 570.991 1777.25 570.918 1773.94 570.96 1770.62 571.117Z" fill="#2F2E41" fill-rule="evenodd"/><path d="M1656 796.5C1656 810.583 1651.08 822 1645 822 1638.92 822 1634 810.583 1634 796.5 1634 782.417 1638.92 771 1645 771 1651.08 771 1656 782.417 1656 796.5Z" fill="#FFB9B9" fill-rule="evenodd"/><path d="M1927 788.5C1927 802.583 1922.08 814 1916 814 1909.92 814 1905 802.583 1905 788.5 1905 774.417 1909.92 763 1916 763 1922.08 763 1927 774.417 1927 788.5Z" fill="#FFB9B9" fill-rule="evenodd"/></g></svg>